Coordinates
version=1
nRows=9
nColumns=24
inDegrees=yes

Units are S.I. units (second, meters, Newtons, ...)
Angles are in degrees.

endheader
time	pelvis_tilt	pelvis_list	pelvis_rotation	pelvis_tx	pelvis_ty	pelvis_tz	hip_flexion_r	hip_adduction_r	hip_rotation_r	knee_angle_r	ankle_angle_r	subtalar_angle_r	mtp_angle_r	hip_flexion_l	hip_adduction_l	hip_rotation_l	knee_angle_l	ankle_angle_l	subtalar_angle_l	mtp_angle_l	lumbar_extension	lumbar_bending	lumbar_rotation
      2.76000000	     92.97062029	     34.44010730	    -90.73948753	      1.02854241	      0.28081392	      1.07681332	     13.92076994	     -8.77088120	      4.25036982	    -62.56965419	     -7.76674591	      0.00000000	      0.00000000	     11.89574228	     -6.68690883	     -4.19272740	    -71.71079284	    -11.34783828	      0.00000000	      0.00000000	      0.00000000	      0.00000000	      0.00000000
      2.77000000	     92.96208219	     34.40445363	    -90.76069029	      1.02858416	      0.28078667	      1.07675420	     13.96701070	     -8.92622993	      4.50927632	    -62.99138244	     -8.31394041	      0.00000000	      0.00000000	     11.86606323	     -6.68840880	     -4.19471825	    -71.72764719	    -11.38621653	      0.00000000	      0.00000000	      0.00000000	      0.00000000	      0.00000000
      2.78000000	     92.95474990	     34.40166961	    -90.77559212	      1.02851127	      0.28076013	      1.07666762	     13.96986942	     -9.08163568	      4.78595590	    -63.47908469	     -8.92048223	      0.00000000	      0.00000000	     11.85264926	     -6.68391522	     -4.19248282	    -71.73570660	    -11.41307175	      0.00000000	      0.00000000	      0.00000000	      0.00000000	      0.00000000
      2.79000000	     92.94822541	     34.41800260	    -90.77783283	      1.02849661	      0.28072381	      1.07666636	     13.92664705	     -9.22735462	      5.09079015	    -64.01745909	     -9.42236823	      0.00000000	      0.00000000	     11.85846056	     -6.67925461	     -4.18420815	    -71.73614690	    -11.42331530	      0.00000000	      0.00000000	      0.00000000	      0.00000000	      0.00000000
      2.80000000	     92.94010287	     34.43188123	    -90.76968393	      1.02856415	      0.28066439	      1.07672350	     13.85850515	     -9.35947046	      5.41401154	    -64.57349865	     -9.69872818	      0.00000000	      0.00000000	     11.87152385	     -6.67919653	     -4.17119487	    -71.73635788	    -11.41644500	      0.00000000	      0.00000000	      0.00000000	      0.00000000	      0.00000000
      2.81000000	     92.92641233	     34.43183095	    -90.75952231	      1.02861219	      0.28057358	      1.07673402	     13.78275790	     -9.47889698	      5.73734144	    -65.12235955	     -9.70845152	      0.00000000	      0.00000000	     11.87753841	     -6.68581618	     -4.15681539	    -71.74345632	    -11.39579271	      0.00000000	      0.00000000	      0.00000000	      0.00000000	      0.00000000
      2.82000000	     92.90542221	     34.41703600	    -90.75356796	      1.02858311	      0.28045785	      1.07666683	     13.70418976	     -9.58803558	      6.04763734	    -65.65790402	     -9.49368619	      0.00000000	      0.00000000	     11.86908600	     -6.69836594	     -4.14459152	    -71.75970664	    -11.36689750	      0.00000000	      0.00000000	      0.00000000	      0.00000000	      0.00000000
      2.83000000	     92.88001190	     34.39161962	    -90.75104429	      1.02853418	      0.28033748	      1.07658333	     13.61942443	     -9.68788852	      6.34307575	    -66.18848255	     -9.15345091	      0.00000000	      0.00000000	     11.84734417	     -6.71413300	     -4.13657859	    -71.78219039	    -11.33582548	      0.00000000	      0.00000000	      0.00000000	      0.00000000	      0.00000000
      2.84000000	     92.85513134	     34.36201715	    -90.74697184	      1.02856155	      0.28022664	      1.07655342	     13.52206689	     -9.77862906	      6.63006818	    -66.72764204	     -8.80258544	      0.00000000	      0.00000000	     11.81963874	     -6.72982174	     -4.13275673	    -71.80502765	    -11.30782601	      0.00000000	      0.00000000	      0.00000000	      0.00000000	      0.00000000
